<svg width="72" height="72" viewBox="0 0 72 72" fill="none" xmlns="http://www.w3.org/2000/svg">
<rect width="72" height="72" rx="20" fill="#262626"/>
<path fill-rule="evenodd" clip-rule="evenodd" d="M38.9599 22.9595C39.8802 22.0392 41.1795 21.6666 42.667 21.6666H45.3337C46.8211 21.6666 48.1204 22.0392 49.0408 22.9595C49.9611 23.8799 50.3337 25.1791 50.3337 26.6666V29.3333C50.3337 30.8208 49.9611 32.1201 49.0408 33.0404C48.1204 33.9607 46.8211 34.3333 45.3337 34.3333H42.667C41.1795 34.3333 39.8802 33.9607 38.9599 33.0404C38.0395 32.1201 37.667 30.8208 37.667 29.3333V26.6666C37.667 25.1791 38.0395 23.8799 38.9599 22.9595ZM40.3741 24.3737C39.9611 24.7867 39.667 25.4874 39.667 26.6666V29.3333C39.667 30.5125 39.9611 31.2132 40.3741 31.6262C40.7871 32.0392 41.4878 32.3333 42.667 32.3333H45.3337C46.5128 32.3333 47.2136 32.0392 47.6266 31.6262C48.0395 31.2132 48.3337 30.5125 48.3337 29.3333V26.6666C48.3337 25.4874 48.0395 24.7867 47.6266 24.3737C47.2136 23.9607 46.5128 23.6666 45.3337 23.6666H42.667C41.4878 23.6666 40.7871 23.9607 40.3741 24.3737Z" fill="#A4A4A4"/>
<path fill-rule="evenodd" clip-rule="evenodd" d="M22.9599 38.9595C23.8802 38.0392 25.1795 37.6666 26.667 37.6666H29.3337C30.8211 37.6666 32.1204 38.0392 33.0408 38.9595C33.9611 39.8799 34.3337 41.1791 34.3337 42.6666V45.3333C34.3337 46.8208 33.9611 48.1201 33.0408 49.0404C32.1204 49.9607 30.8211 50.3333 29.3337 50.3333H26.667C25.1795 50.3333 23.8802 49.9607 22.9599 49.0404C22.0395 48.1201 21.667 46.8208 21.667 45.3333V42.6666C21.667 41.1791 22.0395 39.8799 22.9599 38.9595ZM24.3741 40.3737C23.9611 40.7867 23.667 41.4874 23.667 42.6666V45.3333C23.667 46.5125 23.9611 47.2132 24.3741 47.6262C24.7871 48.0392 25.4878 48.3333 26.667 48.3333H29.3337C30.5128 48.3333 31.2136 48.0392 31.6266 47.6262C32.0395 47.2132 32.3337 46.5125 32.3337 45.3333V42.6666C32.3337 41.4874 32.0395 40.7867 31.6266 40.3737C31.2136 39.9607 30.5128 39.6666 29.3337 39.6666H26.667C25.4878 39.6666 24.7871 39.9607 24.3741 40.3737Z" fill="#A4A4A4"/>
<path fill-rule="evenodd" clip-rule="evenodd" d="M28.0003 23.6666C25.6071 23.6666 23.667 25.6067 23.667 28C23.667 30.3932 25.6071 32.3333 28.0003 32.3333C30.3936 32.3333 32.3337 30.3932 32.3337 28C32.3337 25.6067 30.3936 23.6666 28.0003 23.6666ZM21.667 28C21.667 24.5022 24.5025 21.6666 28.0003 21.6666C31.4981 21.6666 34.3337 24.5022 34.3337 28C34.3337 31.4978 31.4981 34.3333 28.0003 34.3333C24.5025 34.3333 21.667 31.4978 21.667 28Z" fill="#A4A4A4"/>
<path fill-rule="evenodd" clip-rule="evenodd" d="M44.0003 39.6666C41.6071 39.6666 39.667 41.6067 39.667 44C39.667 46.3932 41.6071 48.3333 44.0003 48.3333C46.3936 48.3333 48.3337 46.3932 48.3337 44C48.3337 41.6067 46.3936 39.6666 44.0003 39.6666ZM37.667 44C37.667 40.5022 40.5025 37.6666 44.0003 37.6666C47.4981 37.6666 50.3337 40.5022 50.3337 44C50.3337 47.4978 47.4981 50.3333 44.0003 50.3333C40.5025 50.3333 37.667 47.4978 37.667 44Z" fill="#A4A4A4"/>
</svg>
