<svg width="72" height="72" viewBox="0 0 72 72" fill="none" xmlns="http://www.w3.org/2000/svg">
<rect width="72" height="72" rx="20" fill="#262626"/>
<path fill-rule="evenodd" clip-rule="evenodd" d="M22.4734 24.9131C23.5496 22.9822 25.6233 21.6666 28.0002 21.6666H40.0002C40.5525 21.6666 41.0002 22.1143 41.0002 22.6666V36C41.0002 38.0189 39.3525 39.6666 37.3335 39.6666H36.0002C35.4479 39.6666 35.0002 39.2189 35.0002 38.6666C35.0002 38.1143 35.4479 37.6666 36.0002 37.6666H37.3335C38.2479 37.6666 39.0002 36.9143 39.0002 36V23.6666H28.0002C26.3771 23.6666 24.9575 24.5643 24.2203 25.8868C23.9515 26.3692 23.3424 26.5423 22.86 26.2734C22.3776 26.0045 22.2045 25.3955 22.4734 24.9131Z" fill="#A4A4A4"/>
<path fill-rule="evenodd" clip-rule="evenodd" d="M39.0003 26.6666C39.0003 26.1143 39.448 25.6666 40.0003 25.6666H42.4537C43.7788 25.6666 44.984 26.384 45.6385 27.5112L45.6418 27.5169L45.6418 27.5169L47.9217 31.5035C48.0987 31.813 48.0975 32.1933 47.9186 32.5017C47.7397 32.8101 47.4102 33 47.0536 33H45.3337C45.1526 33 45.0003 33.1522 45.0003 33.3333V37.3333C45.0003 37.5143 45.1526 37.6666 45.3337 37.6666H49.3337C49.8859 37.6666 50.3337 38.1143 50.3337 38.6666V42.6666C50.3337 45.4322 48.0993 47.6666 45.3337 47.6666H44.0003C43.448 47.6666 43.0003 47.2189 43.0003 46.6666C43.0003 45.7522 42.248 45 41.3337 45C40.4193 45 39.667 45.7522 39.667 46.6666C39.667 47.2189 39.2193 47.6666 38.667 47.6666H33.3337C32.7814 47.6666 32.3337 47.2189 32.3337 46.6666C32.3337 45.7522 31.5814 45 30.667 45C29.7526 45 29.0003 45.7522 29.0003 46.6666C29.0003 47.2189 28.5526 47.6666 28.0003 47.6666H26.667C23.9014 47.6666 21.667 45.4322 21.667 42.6666C21.667 42.1143 22.1147 41.6666 22.667 41.6666C23.2193 41.6666 23.667 42.1143 23.667 42.6666C23.667 44.3277 25.0059 45.6666 26.667 45.6666H27.1394C27.5767 44.1308 28.9945 43 30.667 43C32.3395 43 33.7573 44.1308 34.1946 45.6666H37.8061C38.2434 44.1308 39.6611 43 41.3337 43C43.0062 43 44.424 44.1308 44.8612 45.6666H45.3337C46.9947 45.6666 48.3337 44.3277 48.3337 42.6666V39.6666H45.3337C44.048 39.6666 43.0003 38.6189 43.0003 37.3333V33.3333C43.0003 32.049 44.0459 31.0021 45.3298 31L43.9089 28.5154C43.9084 28.5146 43.9079 28.5138 43.9074 28.513C43.6017 27.9883 43.0476 27.6666 42.4537 27.6666H41.0003V36C41.0003 38.0189 39.3526 39.6666 37.3337 39.6666H36.0003C35.448 39.6666 35.0003 39.2189 35.0003 38.6666C35.0003 38.1143 35.448 37.6666 36.0003 37.6666H37.3337C38.248 37.6666 39.0003 36.9143 39.0003 36V26.6666Z" fill="#A4A4A4"/>
<path fill-rule="evenodd" clip-rule="evenodd" d="M30.6667 45C29.7462 45 29 45.7462 29 46.6667C29 47.5871 29.7462 48.3333 30.6667 48.3333C31.5871 48.3333 32.3333 47.5871 32.3333 46.6667C32.3333 45.7462 31.5871 45 30.6667 45ZM27 46.6667C27 44.6416 28.6416 43 30.6667 43C32.6917 43 34.3333 44.6416 34.3333 46.6667C34.3333 48.6917 32.6917 50.3333 30.6667 50.3333C28.6416 50.3333 27 48.6917 27 46.6667Z" fill="#A4A4A4"/>
<path fill-rule="evenodd" clip-rule="evenodd" d="M41.3337 44.9999C40.4132 44.9999 39.667 45.7461 39.667 46.6666C39.667 47.5871 40.4132 48.3333 41.3337 48.3333C42.2541 48.3333 43.0003 47.5871 43.0003 46.6666C43.0003 45.7461 42.2541 44.9999 41.3337 44.9999ZM37.667 46.6666C37.667 44.6416 39.3086 42.9999 41.3337 42.9999C43.3587 42.9999 45.0003 44.6416 45.0003 46.6666C45.0003 48.6917 43.3587 50.3333 41.3337 50.3333C39.3086 50.3333 37.667 48.6917 37.667 46.6666Z" fill="#A4A4A4"/>
<path fill-rule="evenodd" clip-rule="evenodd" d="M45.3333 33C45.1523 33 45 33.1523 45 33.3333V37.3333C45 37.5144 45.1523 37.6667 45.3333 37.6667H48.3333V36.265L46.4723 33H45.3333ZM43 33.3333C43 32.0477 44.0477 31 45.3333 31H47.0533C47.4125 31 47.7442 31.1927 47.9221 31.5048L50.2021 35.5048C50.2881 35.6557 50.3333 35.8263 50.3333 36V38.6667C50.3333 39.219 49.8856 39.6667 49.3333 39.6667H45.3333C44.0477 39.6667 43 38.619 43 37.3333V33.3333Z" fill="#A4A4A4"/>
<path fill-rule="evenodd" clip-rule="evenodd" d="M21.667 30.6666C21.667 30.1143 22.1147 29.6666 22.667 29.6666H30.667C31.2193 29.6666 31.667 30.1143 31.667 30.6666C31.667 31.2189 31.2193 31.6666 30.667 31.6666H22.667C22.1147 31.6666 21.667 31.2189 21.667 30.6666Z" fill="#A4A4A4"/>
<path fill-rule="evenodd" clip-rule="evenodd" d="M21.667 34.6666C21.667 34.1143 22.1147 33.6666 22.667 33.6666H28.0003C28.5526 33.6666 29.0003 34.1143 29.0003 34.6666C29.0003 35.2189 28.5526 35.6666 28.0003 35.6666H22.667C22.1147 35.6666 21.667 35.2189 21.667 34.6666Z" fill="#A4A4A4"/>
<path fill-rule="evenodd" clip-rule="evenodd" d="M21.667 38.6666C21.667 38.1143 22.1147 37.6666 22.667 37.6666H25.3337C25.8859 37.6666 26.3337 38.1143 26.3337 38.6666C26.3337 39.2189 25.8859 39.6666 25.3337 39.6666H22.667C22.1147 39.6666 21.667 39.2189 21.667 38.6666Z" fill="#A4A4A4"/>
</svg>
