<svg width="72" height="72" viewBox="0 0 72 72" fill="none" xmlns="http://www.w3.org/2000/svg">
<rect width="72" height="72" rx="20" fill="#262626"/>
<path fill-rule="evenodd" clip-rule="evenodd" d="M28.3463 31.3334C26.1386 31.3334 24.333 33.139 24.333 35.3467V39.4477C25.0566 39.1594 25.8441 39 26.6663 39C30.1653 39 32.9997 41.8344 32.9997 45.3334C32.9997 46.4102 32.7261 47.4383 32.2355 48.3334H43.653C45.8607 48.3334 47.6663 46.5277 47.6663 44.32V43.7334H46.133C44.2536 43.7334 42.4294 42.3591 42.257 40.329C42.1493 39.1794 42.587 38.1054 43.3454 37.36C44.0276 36.6642 44.9628 36.2667 45.973 36.2667H47.6663V35.3467C47.6663 33.139 45.8607 31.3334 43.653 31.3334H28.3463ZM22.333 35.3467C22.333 32.0344 25.034 29.3334 28.3463 29.3334H43.653C46.9653 29.3334 49.6663 32.0344 49.6663 35.3467V37.2667C49.6663 37.819 49.2186 38.2667 48.6663 38.2667H45.973C45.4943 38.2667 45.0732 38.4523 44.7695 38.7643L44.7515 38.7823C44.3968 39.1286 44.1986 39.6216 44.2485 40.1452L44.2496 40.157L44.2496 40.157C44.3201 41.0036 45.1342 41.7334 46.133 41.7334H48.6663C49.2186 41.7334 49.6663 42.1811 49.6663 42.7334V44.32C49.6663 47.6323 46.9653 50.3334 43.653 50.3334H30.173C29.7526 50.3334 29.377 50.0704 29.2333 49.6753C29.0895 49.2802 29.2083 48.8374 29.5304 48.5672C29.8543 48.2955 30.1399 47.9579 30.3626 47.5762L30.3752 47.5551C30.7723 46.9111 30.9997 46.1459 30.9997 45.3334C30.9997 42.939 29.0607 41 26.6663 41C25.651 41 24.7084 41.3558 23.9563 41.9554C23.656 42.1948 23.2451 42.241 22.899 42.0743C22.553 41.9076 22.333 41.5575 22.333 41.1734V35.3467Z" fill="#A4A4A4"/>
<path fill-rule="evenodd" clip-rule="evenodd" d="M38.7997 25.2668C38.7997 24.1901 37.7236 23.4509 36.7274 23.8285L26.1402 27.8287C25.0512 28.2409 24.333 29.2807 24.333 30.4534V36.5467C24.333 37.099 23.8853 37.5467 23.333 37.5467C22.7807 37.5467 22.333 37.099 22.333 36.5467V30.4534C22.333 28.453 23.5617 26.6659 25.4324 25.9581L36.0186 21.9583C38.3291 21.0826 40.7997 22.7968 40.7997 25.2668V30.3334C40.7997 30.8857 40.352 31.3334 39.7997 31.3334C39.2474 31.3334 38.7997 30.8857 38.7997 30.3334V25.2668Z" fill="#A4A4A4"/>
<path fill-rule="evenodd" clip-rule="evenodd" d="M45.9714 38.267C45.4927 38.267 45.0716 38.4526 44.7679 38.7646L44.7499 38.7825C44.3952 39.1288 44.197 39.6218 44.2469 40.1455L44.248 40.1572L44.248 40.1572C44.3185 41.0039 45.1326 41.7336 46.1314 41.7336H48.7218C48.9373 41.7197 49.0781 41.5512 49.0781 41.3737V38.6269C49.0781 38.4494 48.9373 38.2809 48.7218 38.267H45.9714ZM43.3438 37.3602C44.026 36.6645 44.9612 36.267 45.9714 36.267H48.7447C48.7566 36.267 48.7685 36.2672 48.7804 36.2676C50.0511 36.313 51.0781 37.3412 51.0781 38.6269V41.3737C51.0781 42.6594 50.0511 43.6876 48.7804 43.733C48.7685 43.7334 48.7566 43.7336 48.7447 43.7336H46.1314C44.252 43.7336 42.4278 42.3593 42.2554 40.3292C42.1477 39.1796 42.5854 38.1057 43.3438 37.3602Z" fill="#A4A4A4"/>
<path fill-rule="evenodd" clip-rule="evenodd" d="M28.333 36.0001C28.333 35.4478 28.7807 35.0001 29.333 35.0001H38.6663C39.2186 35.0001 39.6663 35.4478 39.6663 36.0001C39.6663 36.5523 39.2186 37.0001 38.6663 37.0001H29.333C28.7807 37.0001 28.333 36.5523 28.333 36.0001Z" fill="#A4A4A4"/>
<path fill-rule="evenodd" clip-rule="evenodd" d="M26.6663 41.0001C25.651 41.0001 24.7084 41.3559 23.9563 41.9554L23.9546 41.9568L23.9546 41.9568C22.961 42.7451 22.333 43.9661 22.333 45.3334C22.333 46.1459 22.5604 46.9111 22.9575 47.5552L22.9659 47.5688L22.9658 47.5688C23.7122 48.8237 25.0852 49.6667 26.6663 49.6667C27.7633 49.6667 28.7523 49.2667 29.504 48.5901C29.5127 48.5823 29.5215 48.5747 29.5304 48.5672C29.8543 48.2955 30.1399 47.9579 30.3626 47.5762L30.3752 47.5552C30.7723 46.9111 30.9997 46.1459 30.9997 45.3334C30.9997 42.939 29.0607 41.0001 26.6663 41.0001ZM22.7106 40.3907C23.7983 39.524 25.1754 39.0001 26.6663 39.0001C30.1653 39.0001 32.9997 41.8344 32.9997 45.3334C32.9997 46.5166 32.6694 47.6408 32.0839 48.5946C31.7505 49.1633 31.323 49.6713 30.8291 50.0883C29.7157 51.0847 28.2566 51.6667 26.6663 51.6667C24.3571 51.6667 22.3455 50.4329 21.251 48.5981C20.6641 47.6436 20.333 46.5181 20.333 45.3334C20.333 43.3411 21.2513 41.549 22.7106 40.3907Z" fill="#A4A4A4"/>
<path fill-rule="evenodd" clip-rule="evenodd" d="M29.482 43.3471C29.857 43.7525 29.8323 44.3852 29.4269 44.7602L26.5869 47.3868C26.1925 47.7515 25.5806 47.7396 25.2008 47.3598L23.8808 46.0398C23.4903 45.6493 23.4903 45.0161 23.8808 44.6256C24.2713 44.2351 24.9045 44.2351 25.295 44.6256L25.9349 45.2655L28.0689 43.2919C28.4744 42.9169 29.107 42.9416 29.482 43.3471Z" fill="#A4A4A4"/>
</svg>
